<svg width="20" height="21" viewBox="0 0 20 21" fill="none" xmlns="http://www.w3.org/2000/svg">
<path d="M4.21444 3.57765C4.47824 3.2583 4.43321 2.78557 4.11386 2.52177C3.79452 2.25797 3.32178 2.303 3.05798 2.62234C2.1587 3.71097 1.50992 5.01576 1.20153 6.44786C1.11433 6.85279 1.37191 7.25174 1.77684 7.33894C2.18177 7.42614 2.58072 7.16857 2.66792 6.76364C2.92443 5.57244 3.46427 4.48577 4.21444 3.57765Z" fill="#257BEB"/>
<path d="M16.9417 2.62234C16.6779 2.303 16.2051 2.25797 15.8858 2.52177C15.5664 2.78557 15.5214 3.2583 15.7852 3.57765C16.5354 4.48577 17.0752 5.57244 17.3317 6.76364C17.4189 7.16857 17.8179 7.42614 18.2228 7.33894C18.6277 7.25174 18.8853 6.85279 18.7981 6.44786C18.4897 5.01576 17.8409 3.71097 16.9417 2.62234Z" fill="#257BEB"/>
<path fill-rule="evenodd" clip-rule="evenodd" d="M9.99997 2.35083C6.68626 2.35083 3.99997 5.03712 3.99997 8.35083C3.99997 10.2375 3.54624 12.0159 2.7426 13.5851C2.63591 13.7935 2.6326 14.0397 2.73365 14.2508C2.83469 14.4619 3.02851 14.6138 3.25769 14.6613C4.32537 14.883 5.41181 15.0531 6.51426 15.1689C6.67494 16.9528 8.17421 18.3508 10 18.3508C11.8258 18.3508 13.3251 16.9528 13.4857 15.1689C14.5882 15.0531 15.6746 14.883 16.7422 14.6613C16.9714 14.6138 17.1652 14.4619 17.2663 14.2508C17.3673 14.0397 17.364 13.7935 17.2573 13.5851C16.4537 12.0159 16 10.2375 16 8.35083C16 5.03712 13.3137 2.35083 9.99997 2.35083ZM10 16.8508C9.04777 16.8508 8.25097 16.1854 8.0493 15.2941C8.69477 15.3317 9.34517 15.3508 9.99997 15.3508C10.6548 15.3508 11.3052 15.3317 11.9507 15.2941C11.749 16.1854 10.9522 16.8508 10 16.8508Z" fill="#257BEB"/>
</svg>
