<svg width="40" height="41" viewBox="0 0 40 41" fill="none" xmlns="http://www.w3.org/2000/svg">
<g clip-path="url(#clip0_108_3287)">
<path d="M10.625 33.9758H4.375V29.6008H10.625V33.9758Z" fill="#93D2FD"/>
<path d="M13.125 27.7258H9.375V24.6008H13.125V27.7258Z" fill="#93D2FD"/>
<path d="M16.875 20.2258H13.125V17.1008H16.875V20.2258Z" fill="#93D2FD"/>
<path d="M16.875 12.7258H13.125V9.60083H16.875V12.7258Z" fill="#93D2FD"/>
<path d="M35 30.2258C33.9662 30.2258 33.125 29.3846 33.125 28.3508V10.8508C33.125 9.81708 33.9662 8.97583 35 8.97583C36.0338 8.97583 36.875 9.81708 36.875 10.8508V28.3508C36.875 29.3846 36.0338 30.2258 35 30.2258Z" fill="#93D2FD"/>
<path d="M30 8.97583C29.5181 8.97583 29.0825 9.16395 28.75 9.46333V29.7383C29.0825 30.0383 29.5181 30.2258 30 30.2258C31.0338 30.2258 31.875 29.3846 31.875 28.3508V10.8508C31.875 9.81708 31.0338 8.97583 30 8.97583Z" fill="#93D2FD"/>
<path d="M6.875 31.4758H8.125V33.9758H6.875V31.4758Z" fill="#5D5A88"/>
<path d="M36.25 1.47583H6.25C4.52688 1.47583 3.125 2.87771 3.125 4.60083V28.9758H2.5C1.46625 28.9758 0.625 29.8171 0.625 30.8508V38.3508C0.625 39.3846 1.46625 40.2258 2.5 40.2258H12.5C13.5337 40.2258 14.375 39.3846 14.375 38.3508V35.2258H36.25C37.9731 35.2258 39.375 33.824 39.375 32.1008V4.60083C39.375 2.87771 37.9731 1.47583 36.25 1.47583ZM29.375 31.4758V7.72583H38.125V31.4758H29.375ZM19.375 31.4758H16.76C16.83 31.2796 16.875 31.0708 16.875 30.8508V25.8508C16.875 25.6308 16.83 25.4221 16.76 25.2258H18.75C18.97 25.2258 19.1787 25.1808 19.375 25.1108V31.4758ZM12.5 28.9758H6.875V25.8508C6.875 25.5058 7.15562 25.2258 7.5 25.2258H11.25H15C15.3444 25.2258 15.625 25.5058 15.625 25.8508V30.8508C15.625 31.1958 15.3444 31.4758 15 31.4758H14.375V30.8508C14.375 29.8171 13.5337 28.9758 12.5 28.9758ZM15 23.9758H11.25C10.9056 23.9758 10.625 23.6958 10.625 23.3508V18.3508C10.625 18.0065 10.9056 17.7258 11.25 17.7258H18.75C19.0944 17.7258 19.375 18.0065 19.375 18.3508V23.3508C19.375 23.6958 19.0944 23.9758 18.75 23.9758H15ZM10.625 15.8508V10.8508C10.625 10.5065 10.9056 10.2258 11.25 10.2258H18.75C19.0944 10.2258 19.375 10.5065 19.375 10.8508V15.8508C19.375 16.1952 19.0944 16.4758 18.75 16.4758H11.25C10.9056 16.4758 10.625 16.1952 10.625 15.8508ZM19.375 9.09083C19.1787 9.02083 18.97 8.97583 18.75 8.97583H11.25C10.2163 8.97583 9.375 9.81708 9.375 10.8508V15.8508C9.375 16.3327 9.56312 16.7683 9.8625 17.1008C9.5625 17.4333 9.375 17.869 9.375 18.3508V23.3508C9.375 23.5708 9.42 23.7796 9.49 23.9758H7.5C7.28 23.9758 7.07125 24.0208 6.875 24.0908V7.72583H19.375V9.09083ZM20.625 23.3508V18.3508V15.8508V10.8508V7.57208L28.125 5.42896V33.7715L20.625 31.629V23.3508ZM29.375 6.47583V5.22583H38.125V6.47583H29.375ZM6.25 2.72583H36.25C37.0638 2.72583 37.7513 3.25021 38.01 3.97583H4.49C4.74875 3.25021 5.43625 2.72583 6.25 2.72583ZM4.375 5.22583H24.2875L19.9125 6.47583H5.625V25.8508V28.9758H4.375V5.22583ZM13.125 38.3508C13.125 38.6958 12.8444 38.9758 12.5 38.9758H2.5C2.15562 38.9758 1.875 38.6958 1.875 38.3508V30.8508C1.875 30.5058 2.15562 30.2258 2.5 30.2258H12.5C12.8444 30.2258 13.125 30.5058 13.125 30.8508V38.3508ZM14.375 32.7258H15H19.9131L24.2875 33.9758H14.375V32.7258ZM36.25 33.9758H29.375V32.7258H38.01C37.7513 33.4515 37.0638 33.9758 36.25 33.9758Z" fill="#5D5A88"/>
</g>
<defs>
<clipPath id="clip0_108_3287">
<rect width="40" height="40" fill="white" transform="translate(0 0.85083)"/>
</clipPath>
</defs>
</svg>
