<svg width="40" height="40" viewBox="0 0 40 40" fill="none" xmlns="http://www.w3.org/2000/svg">
<path fill-rule="evenodd" clip-rule="evenodd" d="M16.6458 3.35083C9.18991 3.35083 3.14575 9.39499 3.14575 16.8508C3.14575 24.3067 9.18991 30.3508 16.6458 30.3508C20.3741 30.3508 23.747 28.8414 26.1917 26.3968C28.6364 23.9521 30.1458 20.5792 30.1458 16.8508C30.1458 9.39499 24.1016 3.35083 16.6458 3.35083ZM0.145752 16.8508C0.145752 7.73813 7.53305 0.35083 16.6458 0.35083C25.7585 0.35083 33.1458 7.73813 33.1458 16.8508C33.1458 20.8665 31.7097 24.5489 29.3256 27.4094L38.7064 36.7902C39.2922 37.376 39.2922 38.3257 38.7064 38.9115C38.1206 39.4973 37.1709 39.4973 36.5851 38.9115L27.2043 29.5307C24.3439 31.9148 20.6614 33.3508 16.6458 33.3508C7.53305 33.3508 0.145752 25.9635 0.145752 16.8508ZM16.6458 9.35083C17.4742 9.35083 18.1458 10.0224 18.1458 10.8508V15.3508H22.6458C23.4742 15.3508 24.1458 16.0224 24.1458 16.8508C24.1458 17.6793 23.4742 18.3508 22.6458 18.3508H18.1458V22.8508C18.1458 23.6793 17.4742 24.3508 16.6458 24.3508C15.8173 24.3508 15.1458 23.6793 15.1458 22.8508V18.3508H10.6458C9.81732 18.3508 9.14575 17.6793 9.14575 16.8508C9.14575 16.0224 9.81732 15.3508 10.6458 15.3508H15.1458V10.8508C15.1458 10.0224 15.8173 9.35083 16.6458 9.35083Z" fill="#111827"/>
</svg>
