<svg width="18" height="19" viewBox="0 0 18 19" fill="none" xmlns="http://www.w3.org/2000/svg">
<path d="M8.51613 12.1411L13.375 17C14.2379 17.8629 15.6371 17.8629 16.5 17C17.3629 16.1371 17.3629 14.7379 16.5 13.875L11.6027 8.97774M8.51613 12.1411L10.5962 9.61529C10.8596 9.29551 11.2118 9.09433 11.6027 8.97774M8.51613 12.1411L4.63693 16.8516C4.23364 17.3413 3.63247 17.625 2.99807 17.625C1.82553 17.625 0.875 16.6745 0.875 15.5019C0.875 14.8675 1.1587 14.2664 1.64842 13.8631L7.34551 9.17134M11.6027 8.97774C12.0606 8.84119 12.5715 8.82067 13.0549 8.86153C13.1604 8.87045 13.2672 8.875 13.375 8.875C15.4461 8.875 17.125 7.19607 17.125 5.125C17.125 4.57478 17.0065 4.05223 16.7936 3.58149L14.0635 6.31164C13.1338 6.09821 12.4019 5.36636 12.1885 4.43664L14.9187 1.70645C14.4479 1.49353 13.9253 1.375 13.375 1.375C11.3039 1.375 9.625 3.05393 9.625 5.125C9.625 5.23282 9.62955 5.33958 9.63847 5.44509C9.71423 6.3413 9.57899 7.33201 8.88471 7.90377L8.79965 7.97382M7.34551 9.17134L3.92417 5.75H2.75L0.875 2.625L2.125 1.375L5.25 3.25V4.42417L8.79965 7.97382M7.34551 9.17134L8.79965 7.97382M14.3125 14.8125L12.125 12.625M3.05603 15.4375H3.06228V15.4438H3.05603V15.4375Z" stroke="#5D5A88" stroke-width="1.5" stroke-linecap="round" stroke-linejoin="round"/>
</svg>
