<svg width="20" height="17" viewBox="0 0 20 17" fill="none" xmlns="http://www.w3.org/2000/svg">
<path d="M10 0.59375L10.2812 0.709375L19.5312 4.45938L20 4.65V5.15625V15.6563V16.4063H18.5V15.6563V5.6625L10 2.2125L1.5 5.65938V15.6531V16.4031H0V15.6531V5.15313V4.64688L0.46875 4.45625L9.71875 0.709375L10 0.59375ZM3 6.40313H3.75H16.25H17V7.15313V15.6531V16.4031H16.25H3.75H3V15.6531V7.15313V6.40313ZM4.5 14.9031H15.5V13.6531H4.5V14.9031ZM4.5 12.1531H15.5V10.6531H4.5V12.1531ZM4.5 9.15313H15.5V7.90313H4.5V9.15313Z" fill="#5D5A88"/>
</svg>
