<svg width="48" height="49" viewBox="0 0 48 49" fill="none" xmlns="http://www.w3.org/2000/svg">
<g clip-path="url(#clip0_336_7792)">
<path d="M27.8709 27.1453C26.1631 27.1453 24.7742 25.7564 24.7742 24.0486C24.7742 22.3407 26.1631 20.9518 27.8709 20.9518C29.5788 20.9518 30.9677 22.3407 30.9677 24.0486C30.9677 25.7564 29.5788 27.1453 27.8709 27.1453Z" fill="#FF3B30"/>
<path d="M47.0276 35.8937L41.712 25.4839C42.6596 25.1905 43.3548 24.3172 43.3548 23.2744C43.3548 21.9939 42.3128 20.9518 41.0323 20.9518C40.5081 20.9518 40.0297 21.1329 39.6403 21.4264L31.447 5.38198C30.0116 2.57011 27.1579 0.822754 24 0.822754C20.8421 0.822754 17.9884 2.57011 16.553 5.38198L0.972387 35.8937C0.336 37.1394 0 38.5376 0 39.9358C0 44.8364 3.98632 48.8228 8.88697 48.8228H39.113C44.0137 48.8228 48 44.8364 48 39.9358C48 38.5376 47.664 37.1394 47.0276 35.8937ZM41.0323 22.5002C41.4588 22.5002 41.8064 22.847 41.8064 23.2744C41.8064 23.7017 41.4588 24.0486 41.0323 24.0486C40.6057 24.0486 40.2581 23.7017 40.2581 23.2744C40.2581 22.847 40.6057 22.5002 41.0323 22.5002ZM39.113 47.2744H8.88697C4.84026 47.2744 1.54839 43.9817 1.54839 39.9358C1.54839 38.7815 1.82555 37.6271 2.35123 36.5982L17.9319 6.0865C19.1017 3.79488 21.4274 2.37114 24 2.37114C26.5726 2.37114 28.8983 3.79488 30.0681 6.0865L38.7321 23.0529C38.7252 23.1273 38.7097 23.1985 38.7097 23.2744C38.7097 24.1275 39.1773 24.8669 39.8648 25.2702L45.6488 36.5982C46.1744 37.6264 46.4516 38.7807 46.4516 39.9358C46.4516 43.9817 43.1597 47.2744 39.113 47.2744Z" fill="#5D5A88"/>
<path d="M28.6893 6.79027C27.7851 5.01968 25.9882 3.91956 24 3.91956C22.0119 3.91956 20.215 5.01968 19.3107 6.79027L3.73009 37.302C3.3159 38.1141 3.0968 39.0246 3.0968 39.9358C3.0968 43.1286 5.69422 45.726 8.887 45.726H39.1131C42.3058 45.726 44.9033 43.1286 44.9033 39.9358C44.9033 39.0246 44.6842 38.1141 44.27 37.3028L28.6893 6.79027ZM39.1131 44.1776H8.887C6.54816 44.1776 4.64519 42.2747 4.64519 39.9358C4.64519 39.2685 4.80622 38.6011 5.1097 38.0073L20.6903 7.49478C21.3283 6.24446 22.5964 5.46794 24 5.46794C25.4036 5.46794 26.6718 6.24446 27.3097 7.49478L42.8904 38.0065C43.1938 38.6011 43.3549 39.2677 43.3549 39.935C43.3549 42.2747 41.4519 44.1776 39.1131 44.1776Z" fill="#5D5A88"/>
<path d="M36.3871 31.7904H34.7187C35.2699 31.0975 35.6129 30.2328 35.6129 29.2805C35.6129 28.1959 35.1909 27.1762 34.4245 26.4106L34.0645 26.0506V24.5177C34.0645 19.1362 29.6864 14.7582 24.3058 14.7582C18.5876 14.7582 13.9354 19.4103 13.9354 25.1285C13.9354 26.9045 14.7158 28.5667 16.0521 29.6978L15.6975 30.4054C15.5582 30.6849 15.4838 30.9992 15.4838 31.312C15.4838 31.4777 15.5094 31.6364 15.5473 31.7904H11.6129C10.3323 31.7904 9.29028 32.8325 9.29028 34.113C9.29028 35.3935 10.3323 36.4356 11.6129 36.4356H20.9032C21.3298 36.4356 21.6774 36.7824 21.6774 37.2098C21.6774 37.6371 21.3298 37.984 20.9032 37.984H17.8064C16.5259 37.984 15.4838 39.026 15.4838 40.3066C15.4838 41.5871 16.5259 42.6291 17.8064 42.6291H34.8387C36.1192 42.6291 37.1613 41.5871 37.1613 40.3066C37.1613 39.026 36.1192 37.984 34.8387 37.984H33.2903C32.8637 37.984 32.5161 37.6371 32.5161 37.2098C32.5161 36.7824 32.8637 36.4356 33.2903 36.4356H36.3871C37.6676 36.4356 38.7096 35.3935 38.7096 34.113C38.7096 32.8325 37.6676 31.7904 36.3871 31.7904ZM17.0322 31.312C17.0322 31.2377 17.0493 31.1641 17.0825 31.0983L18.0302 29.2031L17.4619 28.8245C16.2232 27.9984 15.4838 26.6165 15.4838 25.1285C15.4838 20.2635 19.4407 16.3066 24.3058 16.3066C28.8325 16.3066 32.5161 19.9902 32.5161 24.5169V26.6916L33.3298 27.506C33.8036 27.9791 34.0645 28.6093 34.0645 29.2805C34.0645 30.6648 32.938 31.7904 31.5538 31.7904H27.6549L27.0573 29.9974L25.5886 30.4875L26.0222 31.7904H24.5574L23.9597 29.9974L22.4911 30.4875L22.9254 31.7904H17.5107C17.2467 31.7904 17.0322 31.576 17.0322 31.312ZM36.3871 34.8872H33.2903C32.0098 34.8872 30.9677 35.9293 30.9677 37.2098C30.9677 38.4903 32.0098 39.5324 33.2903 39.5324H34.8387C35.2653 39.5324 35.6129 39.8792 35.6129 40.3066C35.6129 40.7339 35.2653 41.0808 34.8387 41.0808H17.8064C17.3798 41.0808 17.0322 40.7339 17.0322 40.3066C17.0322 39.8792 17.3798 39.5324 17.8064 39.5324H20.9032C22.1837 39.5324 23.2258 38.4903 23.2258 37.2098C23.2258 35.9293 22.1837 34.8872 20.9032 34.8872H11.6129C11.1863 34.8872 10.8387 34.5404 10.8387 34.113C10.8387 33.6857 11.1863 33.3388 11.6129 33.3388H36.3871C36.8136 33.3388 37.1613 33.6857 37.1613 34.113C37.1613 34.5404 36.8136 34.8872 36.3871 34.8872Z" fill="#5D5A88"/>
<path d="M25.5484 36.4356C25.9759 36.4356 26.3226 36.089 26.3226 35.6614C26.3226 35.2338 25.9759 34.8872 25.5484 34.8872C25.1208 34.8872 24.7742 35.2338 24.7742 35.6614C24.7742 36.089 25.1208 36.4356 25.5484 36.4356Z" fill="#5D5A88"/>
<path d="M28.6452 39.5324C29.0727 39.5324 29.4194 39.1858 29.4194 38.7582C29.4194 38.3306 29.0727 37.984 28.6452 37.984C28.2176 37.984 27.871 38.3306 27.871 38.7582C27.871 39.1858 28.2176 39.5324 28.6452 39.5324Z" fill="#5D5A88"/>
<path d="M38.6407 18.0176C38.7244 18.8073 39.3863 19.4034 40.1806 19.4034H41.8838C42.6782 19.4034 43.3401 18.8073 43.4237 18.0168L44.8869 4.11462C44.8978 4.01166 44.9032 3.90714 44.9032 3.80417C44.9032 2.16056 43.5654 0.822754 41.9218 0.822754H40.1419C38.4991 0.822754 37.1613 2.16056 37.1613 3.80417C37.1613 3.90792 37.1667 4.01243 37.1775 4.1154L38.6407 18.0176ZM40.1427 2.37114H41.9225C42.7122 2.37114 43.3548 3.01372 43.3548 3.80417C43.3548 3.8545 43.3525 3.90482 43.3471 3.95359L41.8838 17.855H40.1806L38.7174 3.95437C38.712 3.90404 38.7096 3.8545 38.7096 3.80417C38.7096 3.01372 39.3522 2.37114 40.1427 2.37114Z" fill="#5D5A88"/>
<path d="M20.129 28.6937C18.4211 28.6937 17.0322 27.3048 17.0322 25.5969C17.0322 23.889 18.4211 22.5001 20.129 22.5001C21.8369 22.5001 23.2258 23.889 23.2258 25.5969C23.2258 27.3048 21.8369 28.6937 20.129 28.6937Z" fill="#FF3B30"/>
</g>
<defs>
<clipPath id="clip0_336_7792">
<rect width="48" height="48" fill="white" transform="translate(0 0.822754)"/>
</clipPath>
</defs>
</svg>
