<svg width="48" height="49" viewBox="0 0 48 49" fill="none" xmlns="http://www.w3.org/2000/svg">
<g clip-path="url(#clip0_336_7800)">
<path d="M36 26.3228C41.799 26.3228 46.5 21.6217 46.5 15.8228C46.5 10.0238 41.799 5.32275 36 5.32275C30.201 5.32275 25.5 10.0238 25.5 15.8228C25.5 21.6217 30.201 26.3228 36 26.3228Z" fill="#FF3B30"/>
<path d="M26.598 21.9833C28.6103 25.0448 32.0707 27.0728 36 27.0728C42.2033 27.0728 47.25 22.026 47.25 15.8228C47.25 9.6195 42.2033 4.57275 36 4.57275C29.7967 4.57275 24.75 9.6195 24.75 15.8228C24.75 16.1948 24.7703 16.5615 24.8055 16.9238C24.549 16.806 24.2827 16.7055 24 16.6478V6.07275C25.2405 6.07275 26.25 5.06325 26.25 3.82275C26.25 2.58225 25.2405 1.57275 24 1.57275H13.5C12.2595 1.57275 11.25 2.58225 11.25 3.82275C11.25 5.06325 12.2595 6.07275 13.5 6.07275V16.6485C11.7907 16.9965 10.5 18.5123 10.5 20.3228C10.5 22.1333 11.7907 23.649 13.5 23.997V28.4933C12.1523 29.2755 10.992 30.3435 10.1093 31.6215L9.28575 30.798C9.57975 30.3983 9.75 29.913 9.75 29.4135C9.75 28.1228 8.7 27.0728 7.40925 27.0728C6.79275 27.0728 6.18975 27.3225 5.754 27.7583L1.4355 32.0768C0.99975 32.5125 0.75 33.1155 0.75 33.732C0.75 35.0228 1.8 36.0728 3.09075 36.0728C3.59025 36.0728 4.0755 35.9025 4.47525 35.6085L8.44725 39.5805C9.38775 44.4128 13.647 48.0728 18.75 48.0728C22.446 48.0728 25.779 46.176 27.6818 43.065L31.5375 46.9208C32.28 47.6633 33.2677 48.072 34.3177 48.072C36.486 48.0728 38.25 46.3088 38.25 44.1413C38.25 43.0913 37.8413 42.1035 37.0988 41.361L36.3105 40.5728L41.5988 35.2845C42.3413 34.542 42.75 33.5543 42.75 32.5043C42.75 30.3368 40.986 28.5728 38.8185 28.5728C37.7685 28.5728 36.7808 28.9815 36.0382 29.724L30.75 35.0123L29.9618 34.224C29.4953 33.7575 28.926 33.4403 28.311 33.2558C27.3848 31.2045 25.866 29.5515 23.9993 28.4745V23.997C25.1445 23.7645 26.0903 23.0018 26.598 21.9833ZM45.75 15.8228C45.75 17.6633 45.228 19.38 44.3377 20.8508L43.0973 19.6103C43.7183 19.0523 44.0895 18.5378 44.1097 18.5093L44.6077 17.8125L43.8518 17.4105C43.806 17.3865 43.014 16.9665 42.144 16.5705C43.4692 14.6378 43.4992 12.1943 43.5 12.0758L43.5037 11.3228H42.2145C40.917 11.3228 39.849 11.8118 38.9835 12.435C38.994 12.3113 39 12.1905 39 12.0728C39 9.27975 36.4927 7.74375 36.3862 7.68L36 7.44825L35.6138 7.68C35.5448 7.72125 34.2337 8.526 33.4958 10.0088L30.9728 7.485C32.4428 6.59475 34.1595 6.07275 36 6.07275C41.376 6.07275 45.75 10.4468 45.75 15.8228ZM37.1745 13.6868L34.644 11.1563C34.929 10.257 35.5785 9.60075 35.9993 9.252C36.552 9.71025 37.5 10.6965 37.5 12.0728C37.5 12.5363 37.3613 13.1453 37.1745 13.6868ZM40.107 16.6193L38.4473 14.9595C39.2933 14.0355 40.404 12.954 41.9325 12.8333C41.8065 13.7558 41.4427 15.309 40.398 16.3328L40.107 16.6193ZM42.2977 18.3038C42.2183 18.3818 42.1252 18.4635 42.0322 18.5453L41.3452 17.8583C41.6782 18.006 42.0105 18.1628 42.2977 18.3038ZM29.7323 8.3655L43.4573 22.0913C43.0957 22.521 42.6975 22.9193 42.2677 23.2808L28.5427 9.555C28.9042 9.12525 29.3025 8.727 29.7323 8.3655ZM31.602 16.3335C30.7095 15.4583 30.3158 14.1983 30.1403 13.2735L35.121 18.255C34.398 18.7875 33.1432 19.5728 32.25 19.5728C31.2022 19.5728 30.2723 18.864 29.7023 18.3038C30.192 18.063 30.8145 17.772 31.3447 17.5695L32.436 17.1518L31.602 16.3335ZM27.6623 10.7955L28.4985 11.6318L28.5 12.0765C28.5007 12.195 28.5307 14.6385 29.856 16.5705C28.986 16.9658 28.1932 17.3858 28.1482 17.4105L27.393 17.8118L27.8903 18.5085C27.9645 18.6135 29.7495 21.0728 32.25 21.0728C33.2775 21.0728 34.4115 20.5125 35.25 19.9853V24.0728H36.75V19.8833L41.0272 24.1605C39.5573 25.0508 37.8405 25.5728 36 25.5728C30.624 25.5728 26.25 21.1988 26.25 15.8228C26.25 13.9823 26.772 12.2655 27.6623 10.7955ZM12.75 3.82275C12.75 3.4095 13.086 3.07275 13.5 3.07275H24C24.414 3.07275 24.75 3.4095 24.75 3.82275C24.75 4.236 24.414 4.57275 24 4.57275H13.5C13.086 4.57275 12.75 4.236 12.75 3.82275ZM8.25 31.8833L9.33 32.9633C8.6865 34.2728 8.30775 35.7323 8.265 37.2773L5.5605 34.5728L8.25 31.8833ZM3.09075 34.5728C2.62725 34.5728 2.25 34.1955 2.25 33.732C2.25 33.5108 2.33925 33.294 2.496 33.1373L6.8145 28.8188C6.97125 28.662 7.188 28.5728 7.40925 28.5728C7.87275 28.5728 8.25 28.95 8.25 29.4135C8.25 29.6348 8.16075 29.8515 8.004 30.0083L3.6855 34.3268C3.52875 34.4835 3.312 34.5728 3.09075 34.5728ZM34.3185 46.5728C33.669 46.5728 33.0578 46.32 32.5988 45.861L29.5605 42.8228L33 39.3833L36.0382 42.4215C36.4972 42.8805 36.75 43.4918 36.75 44.1413C36.75 45.4823 35.6595 46.5728 34.3185 46.5728ZM37.0988 30.7845C37.5578 30.3255 38.169 30.0728 38.8185 30.0728C40.1595 30.0728 41.25 31.1633 41.25 32.5043C41.25 33.1538 40.9972 33.765 40.5382 34.224L37.5 37.2623L34.0605 33.8228L37.0988 30.7845ZM33 34.8833L36.4395 38.3228L35.25 39.5123L31.8105 36.0728L33 34.8833ZM31.9395 38.3228L28.5 41.7623L25.4618 38.724C25.0028 38.265 24.75 37.6538 24.75 37.0043C24.75 35.6633 25.8405 34.5728 27.1815 34.5728C27.831 34.5728 28.4422 34.8255 28.9012 35.2845L31.9395 38.3228ZM26.5718 33.1343C24.6945 33.4298 23.25 35.0453 23.25 37.0043C23.25 38.0543 23.6588 39.042 24.4012 39.7845L26.5875 41.9708C24.993 44.8215 22.038 46.5728 18.75 46.5728C13.7872 46.5728 9.75 42.5355 9.75 37.5728C9.75 32.61 13.7872 28.5728 18.75 28.5728C22.0305 28.5728 24.987 30.3323 26.5718 33.1343ZM18.75 27.0728C17.4277 27.0728 16.1663 27.3285 15 27.777V22.5728H14.25C13.0095 22.5728 12 21.5633 12 20.3228C12 19.0823 13.0095 18.0728 14.25 18.0728H15V6.07275H22.5V18.0728H23.25C24.4905 18.0728 25.5 19.0823 25.5 20.3228C25.5 21.5633 24.4905 22.5728 23.25 22.5728H22.5V27.7628C21.3263 27.315 20.0602 27.0728 18.75 27.0728Z" fill="#5D5A88"/>
<path d="M12.75 37.5728H11.25C11.25 41.7083 14.6145 45.0728 18.75 45.0728V43.5728C15.4418 43.5728 12.75 40.881 12.75 37.5728Z" fill="#5D5A88"/>
<path d="M16.5 13.5728H18V15.0728H16.5V13.5728Z" fill="#5D5A88"/>
<path d="M16.5 10.5728H18V12.0728H16.5V10.5728Z" fill="#5D5A88"/>
<path d="M16.5 7.57275H18V9.07275H16.5V7.57275Z" fill="#5D5A88"/>
</g>
<defs>
<clipPath id="clip0_336_7800">
<rect width="48" height="48" fill="white" transform="translate(0 0.822754)"/>
</clipPath>
</defs>
</svg>
