<svg width="48" height="49" viewBox="0 0 48 49" fill="none" xmlns="http://www.w3.org/2000/svg">
<g clip-path="url(#clip0_336_7796)">
<path d="M14.9969 17.3224L17.2471 15.0722L19.1224 16.9474L16.8722 19.1976L14.9969 17.3224Z" fill="#FF3B30"/>
<path d="M35.8125 16.0103C36.2267 16.0103 36.5625 15.6745 36.5625 15.2603C36.5625 14.846 36.2267 14.5103 35.8125 14.5103C35.3983 14.5103 35.0625 14.846 35.0625 15.2603C35.0625 15.6745 35.3983 16.0103 35.8125 16.0103Z" fill="#5D5A88"/>
<path d="M34.3125 17.5103C34.7267 17.5103 35.0625 17.1745 35.0625 16.7603C35.0625 16.346 34.7267 16.0103 34.3125 16.0103C33.8983 16.0103 33.5625 16.346 33.5625 16.7603C33.5625 17.1745 33.8983 17.5103 34.3125 17.5103Z" fill="#5D5A88"/>
<path d="M32.8125 19.0103C33.2267 19.0103 33.5625 18.6745 33.5625 18.2603C33.5625 17.846 33.2267 17.5103 32.8125 17.5103C32.3983 17.5103 32.0625 17.846 32.0625 18.2603C32.0625 18.6745 32.3983 19.0103 32.8125 19.0103Z" fill="#5D5A88"/>
<path d="M40.8105 14.3227L39.3105 12.8227L47.5605 4.57271L44.25 1.26221L38.25 7.26221L34.4092 3.42146C33.7005 2.71346 32.7585 2.32271 31.7572 2.32271H30V4.07996C30 5.08196 30.39 6.02396 31.098 6.73196L31.9395 7.57271L22.5 17.0122L20.25 14.7622L14.6895 20.3227L16.1895 21.8227L0.439453 37.5727L11.25 48.3832L13.4505 46.1827L14.9505 37.1827L19.0605 33.0727H21V39.8227H22.5V32.6332L27 28.1332V39.8227H28.5V33.3832L34.5 27.3832L39.4072 32.2905L40.4677 31.23L35.5605 26.3227L36.75 25.1332L41.6572 30.0405L42.7177 28.98L37.8105 24.0727L39 22.8832L43.9072 27.7905L44.9677 26.73L36.6855 18.4477L40.8105 14.3227ZM32.0625 20.9497L30.123 19.0102L36.75 12.3832L38.6895 14.3227L32.0625 20.9497ZM20.5605 21.0727L23.4375 18.1957L26.127 20.8852L23.25 23.7622L20.5605 21.0727ZM27.1875 19.8247L24.498 17.1352L25.3125 16.3207L28.002 19.0102L27.1875 19.8247ZM26.373 15.2602L27.1875 14.4457L29.877 17.1352L29.0625 17.9497L26.373 15.2602ZM32.8125 14.1997L30.123 11.5102L30.9375 10.6957L33.627 13.3852L32.8125 14.1997ZM31.752 15.2602L30.9375 16.0747L28.248 13.3852L29.0625 12.5707L31.752 15.2602ZM34.0605 7.57271L35.25 6.38321L39.4395 10.5727L38.25 11.7622L34.0605 7.57271ZM45.4395 4.57271L44.25 5.76221L43.0605 4.57271L44.25 3.38321L45.4395 4.57271ZM42 5.63321L43.1895 6.82271L40.5 9.51221L39.3105 8.32271L42 5.63321ZM32.1585 5.67146C31.734 5.24621 31.5 4.68146 31.5 4.07996V3.82271H31.7572C32.3497 3.82271 32.9287 4.06271 33.348 4.48196L34.1895 5.32271L33 6.51221L32.1585 5.67146ZM35.6895 11.3227L34.6875 12.3247L31.998 9.63521L33 8.63321L35.6895 11.3227ZM16.8105 20.3227L20.25 16.8832L21.4395 18.0727L19.1895 20.3227H17.6895L17.25 20.7622L16.8105 20.3227ZM8.24995 31.8832L13.4467 37.08L12.357 43.6185L4.43545 35.6977L8.24995 31.8832ZM11.25 46.2622L2.56045 37.5727L3.37495 36.7582L12.054 45.4372L12.0495 45.4627L11.25 46.2622ZM18.4395 31.5727L14.25 35.7622L9.31045 30.8227L15.75 24.3832L22.1895 30.8227L21.4395 31.5727H18.4395ZM23.25 29.7622L16.8105 23.3227L18.3105 21.8227H19.1895L25.1895 27.8227L23.25 29.7622ZM24.3105 24.8227L29.0625 20.0707L31.002 22.0102L26.25 26.7622L24.3105 24.8227ZM30 25.1332L30.3487 25.482C30.6037 25.7377 30.75 26.0902 30.75 26.4517C30.75 27.2077 30.135 27.8227 29.3782 27.8227H28.5V26.6332L30 25.1332ZM28.5 29.3227H29.3782C29.9257 29.3227 30.432 29.1607 30.8677 28.8937L28.5 31.2622V29.3227ZM37.9395 21.8227L31.8217 27.9405C32.088 27.5055 32.25 26.9985 32.25 26.4517C32.25 25.6845 31.9515 24.9637 31.4085 24.4215L31.0605 24.0727L35.625 19.5082L37.9395 21.8227Z" fill="#5D5A88"/>
<path d="M30 43.5728H19.5V39.0728H30V43.5728Z" fill="#FF3B30"/>
<path d="M41.625 34.5727C40.9402 34.5727 40.2975 34.3065 39.8137 33.8227L38.3137 32.3227L45 25.6372L46.5 27.1372C46.9837 27.6217 47.25 28.2645 47.25 28.9477C47.25 29.631 46.9837 30.2745 46.5 30.7582L43.4355 33.8227C42.9525 34.3065 42.3097 34.5727 41.625 34.5727Z" fill="#FF3B30"/>
</g>
<defs>
<clipPath id="clip0_336_7796">
<rect width="48" height="48" fill="white" transform="translate(0 0.822754)"/>
</clipPath>
</defs>
</svg>
