<svg width="48" height="49" viewBox="0 0 48 49" fill="none" xmlns="http://www.w3.org/2000/svg">
<path d="M18.3539 20.725L17.8064 20.1776L15.7676 16.1C15.1192 14.8032 13.7938 13.984 12.3439 13.984C10.2299 13.984 8.51611 15.6978 8.51611 17.8118C8.51611 19.2617 9.33531 20.5871 10.6321 21.2355L14.7097 23.2743L15.2571 23.8218L18.3539 20.725Z" fill="#FF3B30"/>
<path d="M29.7401 31.0163L33.2511 27.5052C34.5932 26.1631 36.1673 25.1251 37.9295 24.4203L42.3814 22.6395C42.9727 22.4031 43.3548 21.8388 43.3548 21.2019V20.9518C43.3548 18.3904 41.2711 16.3066 38.7097 16.3066C37.8559 16.3066 37.1613 17.0013 37.1613 17.855V19.1292C37.1613 19.4477 36.9703 19.7299 36.6747 19.8482L33.995 20.92C33.8037 20.0366 33.2261 19.2798 32.3928 18.8633L31.7836 18.5585C31.2804 18.307 30.9678 17.8013 30.9678 17.2386C30.9678 16.8445 31.1212 16.4738 31.4 16.1951L32.2894 15.3058L31.1945 14.2109L30.3051 15.1002C29.7341 15.6714 29.4195 16.4309 29.4195 17.2387C29.4195 18.3917 30.06 19.4282 31.0911 19.9436L31.7004 20.2483C32.1877 20.4918 32.4953 20.974 32.5144 21.5152C30.6353 22.2961 28.9526 23.4206 27.5112 24.8619L25.5484 26.8246L18.4427 19.719L16.4601 15.7537C15.6755 14.1846 14.0984 13.2098 12.3439 13.2098C9.80633 13.2098 7.74194 15.2742 7.74194 17.8118C7.74194 19.5663 8.71675 21.1435 10.2858 21.928L14.2511 23.9106L21.3567 31.0163L8.19543 44.1776C7.90298 44.47 7.74194 44.8589 7.74194 45.2724C7.74194 47.2301 9.33456 48.8227 11.2923 48.8227C11.7058 48.8227 12.0947 48.6617 12.3871 48.3693L25.5484 35.208L38.7097 48.3693C39.0021 48.6616 39.391 48.8227 39.8045 48.8227C41.7622 48.8227 43.3548 47.2301 43.3548 45.2724C43.3548 44.8589 43.1938 44.47 42.9014 44.1776L29.7401 31.0163ZM37.2497 21.2857C38.1366 20.931 38.7097 20.0845 38.7097 19.1292V17.855C40.4173 17.855 41.8065 19.2442 41.8065 20.9518V21.2018L37.3546 22.9826C35.3965 23.7658 33.6475 24.919 32.1562 26.4102L31.4711 27.0954C31.1776 26.9853 30.9678 26.7026 30.9678 26.3711C30.9678 25.675 30.653 25.0445 30.1587 24.6165C31.1169 23.905 32.1623 23.3206 33.2843 22.8719L37.2497 21.2857ZM28.6061 25.9568C28.7103 25.8525 28.8166 25.7508 28.9236 25.6502C29.2125 25.7632 29.4195 26.0453 29.4195 26.3711C29.4195 27.1268 29.7825 27.7992 30.343 28.2236L28.6452 29.9214L26.6433 27.9195L28.6061 25.9568ZM11.2923 47.2744C10.1884 47.2744 9.29033 46.3763 9.29033 45.2725L22.4516 32.1112L24.4535 34.1131L11.2923 47.2744ZM39.8046 47.2744L15.1683 22.6381L10.9784 20.5432C9.93717 20.0225 9.29033 18.9759 9.29033 17.8118C9.29033 16.1281 10.6602 14.7582 12.344 14.7582C13.508 14.7582 14.5547 15.4051 15.0753 16.4463L17.1702 20.6362L41.8065 45.2724C41.8065 46.3763 40.9084 47.2744 39.8046 47.2744Z" fill="#5D5A88"/>
<path d="M14.026 27.1507L5.40087 26.136C3.20458 25.8775 1.54839 24.0151 1.54839 21.8037C1.54839 20.1407 2.47239 18.6458 3.95981 17.902L4.1071 17.8283C5.3941 17.1849 6.19355 15.8914 6.19355 14.4525C6.19355 13.4867 5.83306 12.5761 5.17597 11.8746L5.19165 11.8667C5.46397 11.7306 5.75865 11.6615 6.06755 11.6615C6.80526 11.6615 7.46845 12.0713 7.79865 12.7319L7.824 12.7824L9.20835 12.0889L9.18339 12.0389C8.58958 10.8511 7.39568 10.1131 6.06755 10.1131C5.93071 10.1131 5.79542 10.1208 5.66177 10.136C4.07381 9.24763 3.09677 7.59143 3.09677 5.75717V4.24014C3.09677 3.67933 2.96255 3.13914 2.70939 2.65624L2.93061 2.54553C3.1589 2.43143 3.41439 2.37114 3.66977 2.37114C4.38252 2.37114 5.01281 2.8254 5.2381 3.50166L5.45913 4.16446L6.92797 3.67469L6.70713 3.01198C6.27068 1.70253 5.05006 0.822754 3.66977 0.822754C3.17516 0.822754 2.67997 0.939657 2.2381 1.16079L0.241355 2.15901L1.00094 2.91869C1.35397 3.27163 1.54839 3.74088 1.54839 4.24014V5.75717C1.54839 7.73659 2.41819 9.5575 3.88858 10.7871L2.56403 11.4494L3.99319 12.8787C4.41368 13.2991 4.64516 13.858 4.64516 14.4526C4.64516 15.3012 4.17368 16.064 3.41468 16.4435L3.26729 16.5172C1.25197 17.5248 0 19.5506 0 21.8037C0 24.8001 2.244 27.3237 5.2199 27.6737L13.845 28.6884L14.026 27.1507Z" fill="#5D5A88"/>
<path d="M5.98558 5.86761L5.073 6.3239L5.76551 7.70884L6.67809 7.25255C6.987 7.098 7.33297 7.01632 7.67855 7.01632C8.32093 7.01632 8.92326 7.29038 9.34684 7.76497C9.30997 7.95871 9.29022 8.15564 9.29022 8.35267C9.29022 9.19548 9.61848 9.98777 10.2144 10.5839L10.2912 10.6606L11.3861 9.56574L11.3093 9.489C11.0058 9.18542 10.8386 8.78187 10.8386 8.35267C10.8386 8.10464 10.8973 7.85603 11.0083 7.63403L11.2308 7.18897L11.3085 7.2149C12.1138 7.48326 12.7566 8.08926 13.072 8.87758C13.7482 10.5687 15.3623 11.6615 17.1837 11.6615C18.8078 11.6615 20.1289 12.9826 20.1289 14.6067C20.1289 15.1376 20.0438 15.6622 19.8759 16.1659L19.3944 17.6102L20.8634 18.1L21.3449 16.6557C21.5654 15.9938 21.6774 15.3044 21.6774 14.6067C21.6773 12.1289 19.6615 10.1131 17.1837 10.1131C15.9991 10.1131 14.9494 9.40238 14.5094 8.30245C14.0245 7.09045 13.0363 6.15861 11.798 5.74587L10.4463 5.29529L9.97239 6.24309C9.32245 5.74722 8.52106 5.46793 7.67855 5.46793C7.09393 5.46793 6.50855 5.60613 5.98558 5.86761Z" fill="#5D5A88"/>
<path d="M46.8113 20.2164L45.224 18.6292C45.0171 18.4224 44.9033 18.1461 44.9033 17.8513V17.8318C44.9033 17.5544 45.0113 17.2936 45.2074 17.0975L45.7007 16.6042C46.185 16.1199 46.4517 15.4735 46.4517 14.7843V14.7579C46.4517 13.4857 45.4999 12.4072 44.2376 12.2494L40.9355 11.8369C40.5494 11.7887 40.2581 11.4588 40.2581 11.0695C40.2581 10.7748 40.4218 10.5097 40.6857 10.3779L43.4367 9.00234C44.3412 8.55002 44.9033 7.64063 44.9033 6.62925C44.9033 5.61786 44.3412 4.70847 43.4367 4.25625L42.9269 4.00134L42.2344 5.38628L42.7441 5.64118C43.1209 5.82941 43.3549 6.20808 43.3549 6.62925C43.3549 7.05041 43.1209 7.42908 42.744 7.61741L39.993 8.99296C39.2015 9.38876 38.7097 10.1844 38.7097 11.0695C38.7097 12.238 39.5841 13.2285 40.7435 13.3733L44.0455 13.786C44.5346 13.8471 44.9033 14.2649 44.9033 14.758V14.7844C44.9033 15.0601 44.7976 15.3175 44.6057 15.5093L44.1124 16.0026C43.6239 16.4911 43.3549 17.1408 43.3549 17.8318V17.8513C43.3549 18.5598 43.6298 19.2249 44.1291 19.7242L45.7163 21.3114C46.1905 21.7855 46.4517 22.416 46.4517 23.0866C46.4517 24.4707 45.3254 25.597 43.9412 25.597H41.8065V27.1454H43.9412C46.1793 27.1454 48 25.3247 48 23.0866C48 22.0023 47.5779 20.9831 46.8113 20.2164Z" fill="#5D5A88"/>
<path d="M34.2227 15.3158L34.4924 15.4507L35.185 14.0658L34.9152 13.9309C34.3904 13.6685 34.0645 13.1411 34.0645 12.5544C34.0645 11.891 34.4874 11.3043 35.1168 11.0945L37.1459 10.4181C38.0812 10.1065 38.7097 9.23455 38.7097 8.24852C38.7097 7.79552 38.5769 7.35684 38.3256 6.97981L37.4549 5.67403C37.2628 5.38574 37.1613 5.05052 37.1613 4.70416C37.1613 4.03768 37.5315 3.43864 38.1277 3.14058L39.8301 2.28935L39.1376 0.904419L37.4351 1.75574C36.3112 2.31771 35.6129 3.44755 35.6129 4.70416C35.6129 5.3571 35.8043 5.98932 36.1665 6.53281L37.0372 7.83868C37.1184 7.96042 37.1613 8.1021 37.1613 8.24842C37.1613 8.56681 36.9583 8.84832 36.6562 8.94897L34.627 9.62532C33.3645 10.0465 32.5161 11.2235 32.5161 12.5545C32.5161 13.7315 33.1701 14.7895 34.2227 15.3158Z" fill="#5D5A88"/>
<path d="M34.9688 28.2643L36.2571 29.1232C37.0827 27.8848 38.4642 27.1453 39.9527 27.1453H40.258V25.5969H39.9527C37.9454 25.5969 36.0822 26.5941 34.9688 28.2643Z" fill="#5D5A88"/>
</svg>
