<svg width="48" height="49" viewBox="0 0 48 49" fill="none" xmlns="http://www.w3.org/2000/svg">
<g clip-path="url(#clip0_336_7788)">
<path d="M6.75 41.3228C6.75 43.3905 8.43225 45.0728 10.5 45.0728C12.5677 45.0728 14.25 43.3905 14.25 41.3228H6.75Z" fill="#FF3B30"/>
<path d="M42.6833 37.6943C42.5371 36.8025 42.1538 35.964 41.5771 35.2725L40.1431 33.5528L41.2958 32.592L42.7291 34.3118C43.4768 35.2088 43.9726 36.2948 44.1623 37.4513L42.6833 37.6943Z" fill="#5D5A88"/>
<path d="M43.8241 40.839L42.4224 40.3057C42.5821 39.8857 42.6849 39.447 42.7269 39.0015L44.2194 39.1432C44.1646 39.7237 44.0311 40.2937 43.8241 40.839Z" fill="#5D5A88"/>
<path d="M11.25 16.7363H9.75V12.0728H15.75V14.4855H14.25V13.5728H11.25V16.7363Z" fill="#5D5A88"/>
<path d="M36.8895 6.5205L34.3275 5.49525L33.3022 2.9325C32.9707 2.10675 32.1817 1.57275 31.2922 1.57275C30.1657 1.57275 29.2387 2.41875 29.136 3.5415L28.5277 10.2345L27.531 11.2313L26.9932 7.46625L25.5082 7.6785L26.205 12.5573L25.281 13.4813L24.7432 9.71625L23.2582 9.9285L23.955 14.8073L21.9705 16.7918L23.031 17.8523L25.0155 15.8678L29.8942 16.5645L30.1065 15.0795L26.3415 14.5418L27.2655 13.6178L32.1442 14.3145L32.3565 12.8295L28.5915 12.2918L29.5882 11.295L36.2812 10.6868C37.404 10.5848 38.25 9.657 38.25 8.5305C38.25 7.641 37.716 6.852 36.8895 6.5205ZM36.1447 9.19275L31.245 9.63825L32.7802 8.103L31.7197 7.0425L30.1845 8.57775L30.63 3.678C30.6615 3.333 30.9465 3.07275 31.2922 3.07275C31.5652 3.07275 31.8082 3.237 31.9095 3.4905L33.1725 6.65025L36.3315 7.91325C36.5857 8.01525 36.75 8.2575 36.75 8.5305C36.75 8.87625 36.4897 9.16125 36.1447 9.19275Z" fill="#5D5A88"/>
<path d="M22.0605 15.8227C21.5767 15.339 20.934 15.0727 20.25 15.0727H18.75C18.4665 15.0727 18.201 14.9625 18 14.7622L17.5605 14.3227C16.5937 13.356 14.9062 13.356 13.9395 14.3227L13.3245 14.9377C13.1887 15.0735 13.0185 15.1702 12.8325 15.2167L10.998 15.675C10.3792 15.8295 9.84296 16.2067 9.48821 16.7385L8.37671 18.4065L8.99996 18.8227H24L24.5302 18.2925L22.0605 15.8227Z" fill="#FF3B30"/>
<path d="M12.75 36.8228C12.75 38.0633 13.7595 39.0728 15 39.0728C16.2405 39.0728 17.25 38.0633 17.25 36.8228C17.25 35.5823 16.2405 34.5728 15 34.5728C13.7595 34.5728 12.75 35.5823 12.75 36.8228ZM15.75 36.8228C15.75 37.2368 15.414 37.5728 15 37.5728C14.586 37.5728 14.25 37.2368 14.25 36.8228C14.25 36.4088 14.586 36.0728 15 36.0728C15.414 36.0728 15.75 36.4088 15.75 36.8228Z" fill="#5D5A88"/>
<path d="M45.0345 32.3918L39.75 26.0505V23.55L39.876 23.361C40.7745 22.0125 41.25 20.4428 41.25 18.8228V18.5123L41.0303 18.2925C40.8548 18.117 39.1755 16.5728 34.5 16.5728H33.75V17.3228C33.75 17.5763 33.7575 17.8305 33.7725 18.0833C33.108 18.1125 32.4848 18.3278 31.9583 18.6923C31.6852 18.3188 31.2472 18.0728 30.75 18.0728H8.25V12.4478C8.25 11.5088 8.69925 10.6118 9.45075 10.0478L10.6493 9.1485C11.025 8.86725 11.25 8.418 11.25 7.94775V6.07275H14.25V7.94775C14.25 8.418 14.475 8.86725 14.85 9.14775L16.05 10.0478C16.8007 10.6118 17.25 11.5088 17.25 12.4478V14.0723C17.358 14.1488 17.4653 14.2275 17.5605 14.3228L18 14.7623C18.201 14.9625 18.4665 15.0728 18.75 15.0728V12.4478C18.75 11.0393 18.0772 9.693 16.9508 8.84775L15.75 7.94775V6.07275C16.5773 6.07275 17.25 5.4 17.25 4.57275V3.07275C17.25 2.2455 16.5773 1.57275 15.75 1.57275H9.75C8.92275 1.57275 8.25 2.2455 8.25 3.07275V4.57275C8.25 5.39925 8.92275 6.07275 9.75 6.07275L9.74925 7.94775L8.54925 8.84775C7.42275 9.693 6.75 11.0393 6.75 12.4478V18.0728H5.25C4.42275 18.0728 3.75 18.7455 3.75 19.5728V21.0728C3.75 21.9 4.42275 22.5728 5.25 22.5728V40.5728H2.25C1.42275 40.5728 0.75 41.2455 0.75 42.0728V46.5728C0.75 47.4 1.42275 48.0728 2.25 48.0728H15.75C16.5773 48.0728 17.25 47.4 17.25 46.5728V41.6333L17.943 40.9403C18.3705 40.5143 19.101 40.4618 19.5855 40.824L21.6593 42.3788L22.5585 41.1788L20.4847 39.624C19.4303 38.832 17.8133 38.9483 16.8818 39.8798L16.1895 40.5728H13.8105L10.0605 36.8228C9.86025 36.6218 9.75 36.3563 9.75 36.0728C9.75 35.7893 9.86025 35.5238 10.0605 35.3228L13.5 31.8833C13.9012 31.4835 14.5988 31.4835 15 31.8833L22.8698 39.753L23.9303 38.6925L23.25 38.0123V25.5728H24.75V38.3265H25.5022L26.2522 38.3423C26.2905 36.5235 26.9535 34.7513 28.1183 33.3533L33.3518 27.0728H38.6482L43.8817 33.3518C45.0863 34.7985 45.75 36.6308 45.75 38.5125C45.75 40.707 44.8838 42.7583 43.311 44.289L44.3573 45.3645C46.2225 43.5488 47.25 41.1158 47.25 38.5125C47.25 36.2805 46.4632 34.107 45.0345 32.3918ZM9.75 3.07275H15.75L15.7515 4.57275H9.75V3.07275ZM5.25 19.5728H30.75L30.7515 21.0728H5.25V19.5728ZM3.75 46.5728H2.25V42.0728H3.75V46.5728ZM11.25 40.1333L11.6895 40.5728H11.25V40.1333ZM15.75 42.0728L15.7515 46.5728H5.25V42.0728H15.75ZM12.75 30.5723C12.642 30.6488 12.5347 30.7275 12.4395 30.8228L11.25 32.0123V25.5728H12.75V30.5723ZM18.75 33.5123L17.25 32.0123V25.5728H18.75V33.5123ZM29.25 29.6505L26.9655 32.3918C26.703 32.7075 26.469 33.0435 26.25 33.3878V25.5728C26.25 24.7455 25.5772 24.0728 24.75 24.0728H23.25C22.4228 24.0728 21.75 24.7455 21.75 25.5728V36.5123L20.25 35.0123V25.5728C20.25 24.7455 19.5772 24.0728 18.75 24.0728H17.25C16.4227 24.0728 15.75 24.7455 15.75 25.5728V30.5723C15.3105 30.261 14.7825 30.0975 14.25 30.0975V25.5728C14.25 24.7455 13.5773 24.0728 12.75 24.0728H11.25C10.4227 24.0728 9.75 24.7455 9.75 25.5728V33.5123L9 34.2623C8.51625 34.746 8.25 35.3888 8.25 36.0728C8.25 36.7568 8.51625 37.4003 9 37.8833L9.75 38.6333V40.5728H6.75V22.5728H29.25V29.6505ZM32.25 26.0505L30.75 27.8505V22.5728C31.083 22.5728 31.3882 22.4595 31.6372 22.275L32.25 23.4998V26.0505ZM32.3647 20.3753C32.7307 19.881 33.2955 19.5728 33.927 19.5728H33.9427C34.1183 20.6018 34.4115 21.6113 34.818 22.5728H33.4627L32.3647 20.3753ZM38.25 25.5728H33.75V24.0728H38.25V25.5728ZM38.628 22.5285L38.5988 22.5728H36.4695C35.7863 21.1755 35.376 19.6418 35.2747 18.0885C37.902 18.201 39.2445 18.8708 39.7402 19.1873C39.675 20.3805 39.2948 21.5288 38.628 22.5285Z" fill="#5D5A88"/>
<path d="M45.1357 48.0728H18.75V45.8753C18.75 45.1215 19.1243 44.4218 19.752 44.0033L20.817 43.2938C20.9835 43.1828 21.0967 43.0133 21.1365 42.8168L21.6435 40.2848C21.7605 39.6968 22.1003 39.1883 22.6005 38.8545L23.8065 38.0505C24.9 37.3223 26.4667 37.4775 27.393 38.406L27.6667 38.6798C28.1047 39.1185 28.8457 39.1913 29.361 38.8478L30.561 38.0483C31.0268 37.737 31.569 37.5728 32.1285 37.5728C33.4275 37.5728 34.5555 38.4533 34.8705 39.7133L34.9897 40.1903C35.0775 40.5443 35.5785 40.6815 35.8372 40.4243L36.3885 39.873C36.9053 39.357 37.5915 39.0728 38.3213 39.0728C39.4988 39.0728 40.5405 39.8235 40.9132 40.941L40.9515 41.055C41.0325 41.298 41.2312 41.4818 41.481 41.5448L42.7275 41.856C43.5975 42.0735 44.2545 42.7845 44.4015 43.6688L45.1357 48.0728Z" fill="#FF3B30"/>
<path d="M30.75 41.3228H32.25V42.8228H30.75V41.3228Z" fill="#5D5A88"/>
<path d="M36.75 43.5728H38.25V45.0728H36.75V43.5728Z" fill="#5D5A88"/>
<path d="M25.4213 45.408L24.0796 44.7368L24.4148 44.0655C24.7981 43.2998 25.5698 42.8228 26.4271 42.8228H27.7501V44.3228H26.4271C26.1406 44.3228 25.8833 44.4818 25.7558 44.7375L25.4213 45.408Z" fill="#5D5A88"/>
</g>
<defs>
<clipPath id="clip0_336_7788">
<rect width="48" height="48" fill="white" transform="translate(0 0.822754)"/>
</clipPath>
</defs>
</svg>
